<?xml version="1.0" encoding="utf-8"?>
<!-- Generator: Adobe Illustrator 19.2.1, SVG Export Plug-In . SVG Version: 6.00 Build 0)  -->
<svg version="1.1" id="eksisozluk" xmlns="http://www.w3.org/2000/svg" xmlns:xlink="http://www.w3.org/1999/xlink" x="0px" y="0px"
	 viewBox="0 0 144.2 24" style="enable-background:new 0 0 144.2 24;" xml:space="preserve">
<style type="text/css">
	.st0{fill:#81C14B;}
	.st1{fill:#333333;}
</style>
<title>eksisozluk_logo</title>
<g id="eksisozluk-2">
	<g id="greendrop">
		<path class="st0" d="M7.4,22.1c-4.1,0-7.4-3.3-7.4-7.4c0-4,7.4-13.3,7.4-13.3s7.4,9.3,7.4,13.3C14.8,18.8,11.5,22.1,7.4,22.1
			C7.5,22.1,7.5,22.1,7.4,22.1z"/>
	</g>
	<g id="type">
		<g id="eksi">
			<path id="e" class="st1" d="M24.7,14.6v0.1c0,2.2,1.1,3.4,3,3.4c1.3,0,2.6-0.5,3.6-1.4l1.4,2.2c-1.5,1.3-3.4,2-5.3,2
				c-4,0-6.7-2.9-6.7-7.3c0-2.5,0.5-4.2,1.8-5.6c1.1-1.3,2.7-2,4.4-1.9c1.5-0.1,3,0.5,4.1,1.5c1.3,1.3,1.9,3.2,1.9,6.2v0.9
				L24.7,14.6L24.7,14.6z M29,11.7c0.1-0.7-0.1-1.5-0.4-2.1s-1-0.9-1.6-0.8c-1.4,0-2.2,1.1-2.2,3.1V12h4.3L29,11.7L29,11.7z"/>
			<path id="k" class="st1" d="M35.4,20.5V4.6c0-0.6,0-1.2,0-1.8s-0.1-1.1-0.2-1.9L38.9,0C39,0.6,39,1.2,39.1,1.9
				c0,0.8,0.1,1.7,0.1,2.7v15.9H35.4z M43.9,20.5l-4.7-8l3.6-6.1h4.4l-4.5,5.9l5.5,8.2L43.9,20.5L43.9,20.5z"/>
			<path id="s" class="st1" d="M54.2,20.9c-2-0.1-4-0.6-5.7-1.6l1.3-2.7c1.1,0.7,3.1,1.6,4.7,1.6c0.9,0.1,1.8-0.6,1.9-1.6l0,0
				c0-1-0.7-1.5-2.2-1.7l-1.7-0.3c-1-0.2-1.9-0.7-2.6-1.4c-0.5-0.7-0.8-1.6-0.8-2.5c0-2.8,2.2-4.6,5.4-4.6c1.8,0,3.5,0.5,5,1.3
				l-1.2,2.5c-1-0.6-2.2-1-3.4-1c-1.1,0-1.8,0.6-1.8,1.4c0,0.7,0.5,1.1,1.8,1.4l1.7,0.4c1.7,0.4,2.3,1,2.8,1.6
				c0.5,0.7,0.8,1.5,0.8,2.4C60.2,18.9,57.8,20.9,54.2,20.9z"/>
			<path id="diacritic" class="st1" d="M53,24l-0.3-1.4l4.2-1l0.4,2L53,24z"/>
			<path id="ı" class="st1" d="M62.7,20.5V6.6L66.4,6v14.4h-3.7V20.5z"/>
			<path id="dot" class="st1" d="M64.6,4.8c-1.3,0-2.3-1-2.3-2.3s1-2.3,2.3-2.3c1.2,0,2.2,1,2.2,2.3l0,0C66.8,3.8,65.8,4.8,64.6,4.8
				z"/>
		</g>
		<g id="sozluk">
			<path class="st0" d="M74.4,20.9c-2-0.1-4-0.6-5.7-1.6l1.3-2.7c1.1,0.7,3.1,1.6,4.7,1.6c0.9,0.1,1.8-0.6,1.9-1.6l0,0
				c0-1-0.7-1.5-2.2-1.7l-1.7-0.3c-1-0.2-1.9-0.7-2.6-1.4c-0.5-0.7-0.8-1.6-0.8-2.5c0-2.8,2.2-4.6,5.4-4.6c1.8,0,3.5,0.5,5,1.3
				l-1.2,2.5c-1-0.6-2.2-1-3.4-1c-1.1,0-1.8,0.6-1.8,1.4c0,0.7,0.5,1.1,1.8,1.4l1.7,0.4c1.7,0.4,2.3,1,2.8,1.6
				c0.5,0.7,0.8,1.5,0.8,2.4C80.4,18.9,78,20.9,74.4,20.9z"/>
			<path class="st0" d="M93.1,18.8c-1.2,1.3-2.9,2.1-4.6,2c-3.8,0-6.3-2.9-6.3-7.3s2.5-7.4,6.3-7.4c1.8-0.1,3.6,0.7,4.8,2.1
				c1.1,1.3,1.6,2.9,1.6,5.2C94.9,15.8,94.3,17.5,93.1,18.8z M85.6,5.1c-1.2,0-2.1-1-2.1-2.1c0-1.2,1-2.1,2.1-2.1
				c1.2,0,2.1,1,2.1,2.1C87.7,4.2,86.7,5.1,85.6,5.1L85.6,5.1z M90.1,9.6c-0.7-0.9-2-1-2.8-0.3c-0.3,0.3-0.5,0.6-0.7,1
				c-0.5,2.2-0.5,4.5,0.1,6.7c0.3,0.7,1.1,1.2,1.9,1.1c1.6,0,2.3-1.4,2.3-4.8C90.9,11.5,90.6,10.2,90.1,9.6z M91.4,5.1
				c-1.2,0-2.1-1-2.1-2.1c0-1.2,1-2.1,2.1-2.1c1.2,0,2.1,1,2.1,2.1C93.5,4.2,92.5,5.1,91.4,5.1L91.4,5.1z"/>
			<path class="st0" d="M106.7,20.5H96.3v-2.3l6.6-9.2h-6.1V6.4h10.5v2.5l-6.2,9h6.5L106.7,20.5z"/>
			<path class="st0" d="M113.9,20.8c-1.6,0-2.8-0.7-3.3-1.9c-0.3-0.7-0.3-1.1-0.3-3.2V5.2c0-1.4,0-2.8-0.2-4.2l3.8-0.9
				c0.2,1.2,0.2,2.4,0.2,3.7v11c0,2.4,0,2.8,0.2,3.1c0.2,0.3,0.4,0.4,0.7,0.4c0.1,0,0.3,0,0.4-0.1l0.6,2.2
				C115.4,20.7,114.7,20.8,113.9,20.8z"/>
			<path class="st0" d="M126.6,20.9c-0.5-0.3-0.9-0.8-1.1-1.4c-1,0.9-2.3,1.4-3.7,1.3c-2,0-3.7-0.9-4.2-2.3
				c-0.3-0.9-0.4-1.9-0.3-2.8v-9l3.6-0.7v9c-0.1,0.8,0,1.6,0.3,2.3c0.3,0.4,0.8,0.7,1.3,0.7c0.9,0,1.8-0.5,2.3-1.3V6.8l3.5-0.7v10.8
				c0,0.9,0.3,1.8,0.9,2.6L126.6,20.9z M119.8,5.1c-1.2,0-2.1-1-2.1-2.1c0-1.2,1-2.1,2.1-2.1c1.2,0,2.1,1,2.1,2.1
				C122,4.2,121,5.1,119.8,5.1z M125.8,5.1c-1.2,0-2.1-1-2.1-2.1c0-1.2,1-2.1,2.1-2.1c1.2,0,2.1,1,2.1,2.1
				C127.9,4.2,127,5.1,125.8,5.1L125.8,5.1z"/>
			<path class="st0" d="M131.4,20.5V4.6c0-1.2-0.1-2.4-0.2-3.7l3.7-0.9c0.2,1.5,0.3,3.1,0.2,4.6v15.9H131.4L131.4,20.5z M139.9,20.5
				l-4.7-8l3.6-6.1h4.4l-4.5,5.9l5.5,8.2L139.9,20.5L139.9,20.5z"/>
		</g>
	</g>
</g>
</svg>
